<?xml version="1.0" standalone="no"?>
<!DOCTYPE svg PUBLIC "-//W3C//DTD SVG 1.1//EN" "http://www.w3.org/Graphics/SVG/1.1/DTD/svg11.dtd" >
<svg xmlns="http://www.w3.org/2000/svg" xmlns:xlink="http://www.w3.org/1999/xlink" version="1.1">
<metadata>
Created by FontForge 20170731 at Tue Jun 16 20:01:16 2020
 By Aleksey,,,
Copyright Daviseti12 2019
"Untitled
</metadata>
<defs>
<font id="Galactic-Simple" horiz-adv-x="2457" >
  <font-face 
    font-family="Galactic Simple"
    font-weight="400"
    font-stretch="normal"
    units-per-em="2048"
    panose-1="0 0 4 0 0 0 0 0 0 0"
    ascent="2048"
    descent="0"
    x-height="1638"
    cap-height="2457"
    bbox="0 -409 2048 2867"
    underline-thickness="102"
    underline-position="51"
    unicode-range="U+0020-007C"
  />
<missing-glyph horiz-adv-x="1984" 
d="M1506 50l-719 954l-718 -954h1437zM50 69l718 955l-718 954v-1909v0zM1525 69v1909l-719 -954l719 -955v0zM787 1043l719 955h-1437l718 -955v0zM0 0v2048h1575v-2048h-1575z" />
    <glyph glyph-name=".notdef" horiz-adv-x="1984" 
d="M1506 50l-719 954l-718 -954h1437zM50 69l718 955l-718 954v-1909v0zM1525 69v1909l-719 -954l719 -955v0zM787 1043l719 955h-1437l718 -955v0zM0 0v2048h1575v-2048h-1575z" />
    <glyph glyph-name="glyph1" horiz-adv-x="819" 
 />
    <glyph glyph-name="glyph2" horiz-adv-x="819" 
 />
    <glyph glyph-name="space" unicode=" " horiz-adv-x="2048" 
 />
    <glyph glyph-name="quotedbl" unicode="&#x22;" horiz-adv-x="1228" 
d="M0 1228v410h819v-410h-819zM0 2048v409h819v-409h-819z" />
    <glyph glyph-name="period" unicode="." 
d="M0 0v409h409v-409h-409zM614 0v409h819v-409h-819zM1638 0v409h410v-409h-410z" />
    <glyph glyph-name="A" unicode="A" 
d="M0 0v409h409v1229q0 339 240 579t579 240t579 -240q241 -240 241 -579h-410q0 169 -121 289q-119 121 -289 121q-169 0 -289 -121q-120 -120 -120 -289v-1638h-819z" />
    <glyph glyph-name="B" unicode="B" 
d="M0 0v409h1638l-819 410v1638h409v-1433l820 -410v-614h-2048z" />
    <glyph glyph-name="C" unicode="C" horiz-adv-x="1638" 
d="M819 0v614l-819 410v614h409v-410l819 -409v-819h-409zM0 2048v409h409v-409h-409z" />
    <glyph glyph-name="D" unicode="D" 
d="M2048 409l-2048 1024v410l2048 -1024v-410v0zM0 2048v409h2048v-409h-2048z" />
    <glyph glyph-name="E" unicode="E" horiz-adv-x="2048" 
d="M0 0v2457h409v-2048h1229v-409h-1638zM1228 2048v409h410v-409h-410z" />
    <glyph glyph-name="F" unicode="F" 
d="M0 819v409h409v-409h-409zM819 819v409h409v-409h-409zM1638 819v409h410v-409h-410zM0 2048v409h2048v-409h-2048z" />
    <glyph glyph-name="G" unicode="G" horiz-adv-x="1638" 
d="M819 0v1024h-819v409h819v1024h409v-2457h-409z" />
    <glyph glyph-name="H" unicode="H" 
d="M819 0v1228h-819v410h2048v-410h-820v-1228h-409zM0 2048v409h2048v-409h-2048z" />
    <glyph glyph-name="I" unicode="I" horiz-adv-x="1228" 
d="M204 0v1024h410v-1024h-410zM204 1433v1024h410v-1024h-410z" />
    <glyph glyph-name="J" unicode="J" horiz-adv-x="1228" 
d="M204 0v409h410v-409h-410zM204 1024v409h410v-409h-410zM204 2048v409h410v-409h-410z" />
    <glyph glyph-name="K" unicode="K" 
d="M0 1024v409h409v-409h-409zM1638 1024v409h410v-409h-410zM819 0v2457h409v-2457h-409z" />
    <glyph glyph-name="L" unicode="L" horiz-adv-x="1638" 
d="M819 614v410h409v-410h-409zM819 1433v410h409v-410h-409zM0 0v2457h409v-2457h-409z" />
    <glyph glyph-name="M" unicode="M" horiz-adv-x="2048" 
d="M0 2048v409h409v-409h-409zM0 0v409h1228v2048h410v-2457h-1638z" />
    <glyph glyph-name="N" unicode="N" horiz-adv-x="2048" 
d="M0 1228v1229h409v-1229h-409zM204 0v409h205q339 0 579 240t240 579v1229h410v-1229q0 -340 -120 -579q-42 -84 -91 -139q-53 -90 -132 -168q-78 -78 -166 -131v0q-55 -49 -141 -91q-240 -120 -579 -120h-205z" />
    <glyph glyph-name="O" unicode="O" horiz-adv-x="2048" 
d="M204 0v409h205q339 0 579 240t240 579v820h-1228v409h1638v-1229q0 -340 -120 -579q-42 -84 -91 -139q-53 -90 -132 -168q-78 -78 -166 -131v0q-55 -49 -141 -91q-240 -120 -579 -120h-205z" />
    <glyph glyph-name="P" unicode="P" horiz-adv-x="1638" 
d="M819 0v409h409v-409h-409zM0 0v1638h409v-1638h-409zM0 2048v409h409v-409h-409zM819 819v1638h409v-1638h-409z" />
    <glyph glyph-name="Q" unicode="Q" 
d="M0 0v409h1638v819h-1638v410h2048v-1638h-2048zM614 2048v409h819v-409h-819z" />
    <glyph glyph-name="R" unicode="R" horiz-adv-x="1638" 
d="M0 0v409h409v-409h-409zM819 0v409h409v-409h-409zM0 2048v409h409v-409h-409zM819 2048v409h409v-409h-409z" />
    <glyph glyph-name="S" unicode="S" horiz-adv-x="1638" 
d="M819 0v819l-819 409v1229h409v-1024l819 -409v-1024h-409z" />
    <glyph glyph-name="T" unicode="T" horiz-adv-x="2048" 
d="M1228 0v409h410v-409h-410zM1228 819v1229h-1228v409h1638v-1638h-410z" />
    <glyph glyph-name="U" unicode="U" 
d="M0 0v409h2048v-409h-2048zM409 1228v410h410v-410h-410zM1228 1228v410h410v-410h-410z" />
    <glyph glyph-name="V" unicode="V" 
d="M0 0v409h2048v-409h-2048zM0 819v409h819v1229h409v-1229h820v-409h-2048z" />
    <glyph glyph-name="W" unicode="W" horiz-adv-x="1638" 
d="M0 409v410h409v-410h-409zM819 409v410h409v-410h-409zM409 1638v410h410v-410h-410z" />
    <glyph glyph-name="X" unicode="X" horiz-adv-x="2048" 
d="M0 2048v409h409v-409h-409zM0 0l1228 2457h410l-1229 -2457h-409z" />
    <glyph glyph-name="Y" unicode="Y" horiz-adv-x="1638" 
d="M0 0v2457h409v-2457h-409zM819 0v2457h409v-2457h-409z" />
    <glyph glyph-name="Z" unicode="Z" horiz-adv-x="2048" 
d="M0 0v1638q0 339 240 579t579 240t579 -240t240 -579v-1638h-410v1638q0 169 -120 289q-120 121 -289 121q-170 0 -289 -121q-121 -120 -121 -289v-1638h-409z" />
    <glyph glyph-name="a" unicode="a" 
d="M0 0v409h409v1229q0 339 240 579t579 240t579 -240q241 -240 241 -579h-410q0 169 -121 289q-119 121 -289 121q-169 0 -289 -121q-120 -120 -120 -289v-1638h-819z" />
    <glyph glyph-name="b" unicode="b" 
d="M0 0v409h1638l-819 410v1638h409v-1433l820 -410v-614h-2048z" />
    <glyph glyph-name="c" unicode="c" horiz-adv-x="1638" 
d="M819 0v614l-819 410v614h409v-410l819 -409v-819h-409zM0 2048v409h409v-409h-409z" />
    <glyph glyph-name="d" unicode="d" 
d="M2048 409l-2048 1024v410l2048 -1024v-410v0zM0 2048v409h2048v-409h-2048z" />
    <glyph glyph-name="e" unicode="e" horiz-adv-x="2048" 
d="M0 0v2457h409v-2048h1229v-409h-1638zM1228 2048v409h410v-409h-410z" />
    <glyph glyph-name="f" unicode="f" 
d="M0 819v409h409v-409h-409zM819 819v409h409v-409h-409zM1638 819v409h410v-409h-410zM0 2048v409h2048v-409h-2048z" />
    <glyph glyph-name="g" unicode="g" horiz-adv-x="1638" 
d="M819 0v1024h-819v409h819v1024h409v-2457h-409z" />
    <glyph glyph-name="h" unicode="h" 
d="M819 0v1228h-819v410h2048v-410h-820v-1228h-409zM0 2048v409h2048v-409h-2048z" />
    <glyph glyph-name="i" unicode="i" horiz-adv-x="1228" 
d="M204 0v1024h410v-1024h-410zM204 1433v1024h410v-1024h-410z" />
    <glyph glyph-name="j" unicode="j" horiz-adv-x="1228" 
d="M204 0v409h410v-409h-410zM204 1024v409h410v-409h-410zM204 2048v409h410v-409h-410z" />
    <glyph glyph-name="k" unicode="k" 
d="M0 1024v409h409v-409h-409zM1638 1024v409h410v-409h-410zM819 0v2457h409v-2457h-409z" />
    <glyph glyph-name="l" unicode="l" horiz-adv-x="1638" 
d="M819 614v410h409v-410h-409zM819 1433v410h409v-410h-409zM0 0v2457h409v-2457h-409z" />
    <glyph glyph-name="m" unicode="m" horiz-adv-x="2048" 
d="M0 2048v409h409v-409h-409zM0 0v409h1228v2048h410v-2457h-1638z" />
    <glyph glyph-name="n" unicode="n" horiz-adv-x="2048" 
d="M0 1228v1229h409v-1229h-409zM204 0v409h205q339 0 579 240t240 579v1229h410v-1229q0 -340 -120 -579q-42 -84 -91 -139q-53 -90 -132 -168q-78 -78 -166 -131v0q-55 -49 -141 -91q-240 -120 -579 -120h-205z" />
    <glyph glyph-name="o" unicode="o" horiz-adv-x="2048" 
d="M204 0v409h205q339 0 579 240t240 579v820h-1228v409h1638v-1229q0 -340 -120 -579q-42 -84 -91 -139q-53 -90 -132 -168q-78 -78 -166 -131v0q-55 -49 -141 -91q-240 -120 -579 -120h-205z" />
    <glyph glyph-name="p" unicode="p" horiz-adv-x="1638" 
d="M819 0v409h409v-409h-409zM0 0v1638h409v-1638h-409zM0 2048v409h409v-409h-409zM819 819v1638h409v-1638h-409z" />
    <glyph glyph-name="q" unicode="q" 
d="M0 0v409h1638v819h-1638v410h2048v-1638h-2048zM614 2048v409h819v-409h-819z" />
    <glyph glyph-name="r" unicode="r" horiz-adv-x="1638" 
d="M0 0v409h409v-409h-409zM819 0v409h409v-409h-409zM0 2048v409h409v-409h-409zM819 2048v409h409v-409h-409z" />
    <glyph glyph-name="s" unicode="s" horiz-adv-x="1638" 
d="M819 0v819l-819 409v1229h409v-1024l819 -409v-1024h-409z" />
    <glyph glyph-name="t" unicode="t" horiz-adv-x="2048" 
d="M1228 0v409h410v-409h-410zM1228 819v1229h-1228v409h1638v-1638h-410z" />
    <glyph glyph-name="u" unicode="u" 
d="M0 0v409h2048v-409h-2048zM409 1228v410h410v-410h-410zM1228 1228v410h410v-410h-410z" />
    <glyph glyph-name="v" unicode="v" 
d="M0 0v409h2048v-409h-2048zM0 819v409h819v1229h409v-1229h820v-409h-2048z" />
    <glyph glyph-name="w" unicode="w" horiz-adv-x="1638" 
d="M0 409v410h409v-410h-409zM819 409v410h409v-410h-409zM409 1638v410h410v-410h-410z" />
    <glyph glyph-name="x" unicode="x" horiz-adv-x="2048" 
d="M0 2048v409h409v-409h-409zM0 0l1228 2457h410l-1229 -2457h-409z" />
    <glyph glyph-name="y" unicode="y" horiz-adv-x="1638" 
d="M0 0v2457h409v-2457h-409zM819 0v2457h409v-2457h-409z" />
    <glyph glyph-name="z" unicode="z" horiz-adv-x="2048" 
d="M0 0v1638q0 339 240 579t579 240t579 -240t240 -579v-1638h-410v1638q0 169 -120 289q-120 121 -289 121q-170 0 -289 -121q-121 -120 -121 -289v-1638h-409z" />
    <glyph glyph-name="bar" unicode="|" horiz-adv-x="1228" 
d="M0 -409v3276h409v-3276h-409z" />
  </font>
</defs>
</svg>
