<?xml version="1.0" standalone="no"?>
<!DOCTYPE svg PUBLIC "-//W3C//DTD SVG 1.1//EN" "http://www.w3.org/Graphics/SVG/1.1/DTD/svg11.dtd" >
<svg xmlns="http://www.w3.org/2000/svg" xmlns:xlink="http://www.w3.org/1999/xlink" version="1.1">
<metadata>
Created by FontForge 20170731 at Fri Jun 19 12:46:11 2020
 By Aleksey,,,
Copyright Nomaxice 2014
</metadata>
<defs>
<font id="Standard-Galactic-Alphabet+" horiz-adv-x="896" >
  <font-face 
    font-family="Standard Galactic Alphabet+"
    font-weight="400"
    font-stretch="normal"
    units-per-em="1024"
    panose-1="0 0 4 0 0 0 0 0 0 0"
    ascent="819"
    descent="-205"
    x-height="640"
    cap-height="768"
    bbox="0 0 1408 768"
    underline-thickness="51"
    underline-position="26"
    unicode-range="U+0020-201D"
  />
<missing-glyph horiz-adv-x="654" 
d="M521 50l-226 314l-226 -314h452zM50 69l226 315l-226 314v-629v0zM540 69v629l-226 -314l226 -315v0zM295 403l226 315h-452l226 -315v0zM0 0v768h590v-768h-590z" />
    <glyph glyph-name=".notdef" horiz-adv-x="654" 
d="M521 50l-226 314l-226 -314h452zM50 69l226 315l-226 314v-629v0zM540 69v629l-226 -314l226 -315v0zM295 403l226 315h-452l226 -315v0zM0 0v768h590v-768h-590z" />
    <glyph glyph-name="glyph1" horiz-adv-x="64" 
 />
    <glyph glyph-name="glyph2" horiz-adv-x="64" 
 />
    <glyph glyph-name="space" unicode=" " horiz-adv-x="512" 
d="M409 25v13h13v-13h-13z" />
    <glyph glyph-name="exclam" unicode="!" horiz-adv-x="1472" 
d="M64 0v192h192v-192h-192zM1216 0v192h192v-192h-192zM448 0v192h192v576h192v-576h192v-192h-576z" />
    <glyph glyph-name="quotedbl" unicode="&#x22;" horiz-adv-x="320" 
d="M64 320v192h64v-192h-64zM192 320v192h64v-192h-64z" />
    <glyph glyph-name="numbersign" unicode="#" horiz-adv-x="640" 
d="M384 192v128h-128v-128h128zM128 0v64h-64v128h64v128h-64v128h64v64h128v-64h128v64h128v-64h64v-128h-64v-128h64v-128h-64v-64h-128v64h-128v-64h-128z" />
    <glyph glyph-name="dollar" unicode="$" horiz-adv-x="704" 
d="M64 0v192h192v256h192v-256h192v-192h-576zM64 448v128h192v-128h-192zM448 448v128h192v-128h-192zM64 640v128h192v-128h-192zM448 640v128h192v-128h-192z" />
    <glyph glyph-name="percent" unicode="%" horiz-adv-x="640" 
d="M448 0v64h64v-64h-64zM384 64v64h64v-64h-64zM512 64v64h64v-64h-64zM448 128v64h64v-64h-64zM128 320v64h64v-64h-64zM64 384v64h64v-64h-64zM192 384v64h64v-64h-64zM128 448v64h64v-64h-64zM64 0v128h64v64h64v64h64v64h64v64h64v64h64v64h128v-128h-64v-64h-64v-64
h-64v-64h-64v-64h-64v-64h-64v-64h-128z" />
    <glyph glyph-name="ampersand" unicode="&#x26;" horiz-adv-x="448" 
d="M128 0v64h128v-64h-128zM320 0v64h64v-64h-64zM256 64v64h64v-64h-64zM64 64v128h64v-128h-64zM192 128v64h64v-64h-64zM320 128v64h64v-64h-64zM128 192v64h64v-64h-64zM64 256v64h64v-64h-64zM192 256v64h64v-64h-64zM128 320v64h64v-64h-64z" />
    <glyph glyph-name="quotesingle" unicode="'" horiz-adv-x="192" 
d="M64 320v192h64v-192h-64z" />
    <glyph glyph-name="parenleft" unicode="(" horiz-adv-x="320" 
d="M192 0v64h64v-64h-64zM128 64v64h64v-64h-64zM64 128v256h64v-256h-64zM128 384v64h64v-64h-64zM192 448v64h64v-64h-64z" />
    <glyph glyph-name="parenright" unicode=")" horiz-adv-x="320" 
d="M64 0v64h64v-64h-64zM128 64v64h64v-64h-64zM192 128v256h64v-256h-64zM128 384v64h64v-64h-64zM64 448v64h64v-64h-64z" />
    <glyph glyph-name="asterisk" unicode="*" horiz-adv-x="448" 
d="M64 192v64h64v-64h-64zM320 192v64h64v-64h-64zM64 448v64h64v-64h-64zM192 192v64h-64v64h-64v64h64v64h64v64h64v-64h64v-64h64v-64h-64v-64h-64v-64h-64zM320 448v64h64v-64h-64z" />
    <glyph glyph-name="plus" unicode="+" horiz-adv-x="704" 
d="M256 64v192h-192v192h192v192h192v-192h192v-192h-192v-192h-192z" />
    <glyph glyph-name="comma" unicode="," horiz-adv-x="1088" 
d="M64 0v192h384v-192h-384zM640 0v192h384v-192h-384z" />
    <glyph glyph-name="hyphen" unicode="-" horiz-adv-x="704" 
d="M64 256v192h576v-192h-576z" />
    <glyph glyph-name="period" unicode="." horiz-adv-x="1472" 
d="M64 0v192h192v-192h-192zM448 0v192h576v-192h-576zM1216 0v192h192v-192h-192z" />
    <glyph glyph-name="slash" unicode="/" horiz-adv-x="448" 
d="M64 0v128h64v128h64v128h64v128h128v-128h-64v-128h-64v-128h-64v-128h-128z" />
    <glyph glyph-name="zero" unicode="0" horiz-adv-x="576" 
d="M384 0v768h128v-768h-128z" />
    <glyph glyph-name="one" unicode="1" 
d="M384 0v768h448v-128h-320v-640h-128z" />
    <glyph glyph-name="two" unicode="2" 
d="M384 0v768h128v-256h320v-128h-320v-384h-128z" />
    <glyph glyph-name="three" unicode="3" 
d="M384 0v768h192v-64h64v-64h64v-64h64v-64h64v-128h-64v64h-64v64h-64v64h-64v64h-64v-640h-128z" />
    <glyph glyph-name="four" unicode="4" 
d="M384 0v768h128v-256h64v64h64v64h64v64h64v64h64v-128h-64v-64h-64v-64h-64v-64h-64v-64h-64v-384h-128z" />
    <glyph glyph-name="five" unicode="5" 
d="M576 512v64h64v64h-128v-128h64zM384 0v768h448v-128h-64v-64h-64v-64h-64v-64h-64v-64h-64v-384h-128z" />
    <glyph glyph-name="six" unicode="6" 
d="M384 0v768h128v-768h-128zM704 384v384h128v-384h-128z" />
    <glyph glyph-name="seven" unicode="7" 
d="M384 0v768h448v-384h-128v256h-192v-640h-128z" />
    <glyph glyph-name="eight" unicode="8" 
d="M384 0v768h128v-256h192v256h128v-384h-320v-384h-128z" />
    <glyph glyph-name="nine" unicode="9" 
d="M704 512v128h-192v-128h192zM384 0v768h448v-384h-320v-384h-128z" />
    <glyph glyph-name="colon" unicode=":" horiz-adv-x="256" 
d="M64 0v192h128v-192h-128zM64 320v192h128v-192h-128z" />
    <glyph glyph-name="semicolon" unicode=";" horiz-adv-x="1024" 
d="M64 192v192h256v-192h-256zM384 0v384h256v-384h-256zM704 192v192h256v-192h-256z" />
    <glyph glyph-name="less" unicode="&#x3c;" horiz-adv-x="640" 
d="M448 0v64h-128v64h-128v64h-128v128h128v64h128v64h128v64h128v-128h-128v-64h-128v-128h128v-64h128v-128h-128z" />
    <glyph glyph-name="equal" unicode="=" horiz-adv-x="512" 
d="M64 64v128h384v-128h-384zM64 320v128h384v-128h-384z" />
    <glyph glyph-name="greater" unicode="&#x3e;" horiz-adv-x="640" 
d="M64 0v128h128v64h128v128h-128v64h-128v128h128v-64h128v-64h128v-64h128v-128h-128v-64h-128v-64h-128v-64h-128z" />
    <glyph glyph-name="question" unicode="?" horiz-adv-x="1472" 
d="M64 0v192h192v-192h-192zM1216 0v192h192v-192h-192zM448 0v192h192v192h192v-192h192v-192h-576zM640 576v192h192v-192h-192z" />
    <glyph glyph-name="at" unicode="@" horiz-adv-x="576" 
d="M128 0v64h384v-64h-384zM192 192v64h64v-64h-64zM256 128v64h64v64h-64v64h128v-128h64v-64h-192zM64 64v320h64v-320h-64zM448 192v192h64v-192h-64zM128 384v64h320v-64h-320z" />
    <glyph glyph-name="A" unicode="A" 
d="M64 0v192h128v384h64v64h64v64h64v64h256v-64h64v-64h64v-64h64v-128h-192v128h-64v64h-64v-64h-64v-64h-64v-512h-320z" />
    <glyph glyph-name="B" unicode="B" 
d="M64 0v192h448v64h-64v64h-64v64h-64v384h192v-320h64v-64h64v-64h64v-64h64v-64h64v-192h-768z" />
    <glyph glyph-name="C" unicode="C" horiz-adv-x="512" 
d="M256 0v448h192v-448h-192zM64 448v128h192v-128h-192zM64 640v128h192v-128h-192z" />
    <glyph glyph-name="D" unicode="D" 
d="M640 64v64h-192v64h-192v64h-192v192h192v-64h192v-64h192v-64h192v-192h-192zM64 576v192h768v-192h-768z" />
    <glyph glyph-name="E" unicode="E" 
d="M64 0v768h192v-576h576v-192h-768zM640 576v192h192v-192h-192z" />
    <glyph glyph-name="F" unicode="F" 
d="M64 256v192h192v-192h-192zM320 256v192h256v-192h-256zM640 256v192h192v-192h-192zM64 576v192h768v-192h-768z" />
    <glyph glyph-name="G" unicode="G" horiz-adv-x="704" 
d="M448 0v320h-384v192h384v256h192v-768h-192z" />
    <glyph glyph-name="H" unicode="H" 
d="M320 0v256h-256v192h768v-192h-256v-256h-256zM64 576v192h768v-192h-768z" />
    <glyph glyph-name="I" unicode="I" horiz-adv-x="384" 
d="M64 0v320h256v-320h-256zM64 448v320h256v-320h-256z" />
    <glyph glyph-name="J" unicode="J" horiz-adv-x="384" 
d="M64 0v192h256v-192h-256zM64 256v256h256v-256h-256zM64 576v192h256v-192h-256z" />
    <glyph glyph-name="K" unicode="K" 
d="M64 320v192h192v-192h-192zM640 320v192h192v-192h-192zM320 0v768h256v-768h-256z" />
    <glyph glyph-name="L" unicode="L" horiz-adv-x="704" 
d="M448 64v192h192v-192h-192zM448 448v192h192v-192h-192zM64 0v768h192v-768h-192z" />
    <glyph glyph-name="M" unicode="M" 
d="M64 576v192h192v-192h-192zM64 0v192h576v576h192v-768h-768z" />
    <glyph glyph-name="N" unicode="N" horiz-adv-x="768" 
d="M64 384v384h192v-384h-192zM64 0v64h128v64h64v64h64v64h64v64h64v128h64v320h192v-320h-64v-128h-64v-64h-64v-64h-64v-64h-64v-64h-128v-64h-192z" />
    <glyph glyph-name="O" unicode="O" horiz-adv-x="768" 
d="M64 0v64h128v64h64v64h64v64h64v64h64v128h64v128h-64v64h-384v128h512v-64h64v-128h64v-128h-64v-128h-64v-64h-64v-64h-64v-64h-64v-64h-128v-64h-192z" />
    <glyph glyph-name="P" unicode="P" horiz-adv-x="640" 
d="M384 0v128h192v-128h-192zM64 0v576h192v-576h-192zM64 640v128h192v-128h-192zM384 192v576h192v-576h-192z" />
    <glyph glyph-name="Q" unicode="Q" 
d="M64 0v192h576v128h-576v192h768v-512h-768zM320 576v192h256v-192h-256z" />
    <glyph glyph-name="R" unicode="R" horiz-adv-x="768" 
d="M64 0v192h192v-192h-192zM512 0v192h192v-192h-192zM64 576v192h192v-192h-192zM512 576v192h192v-192h-192z" />
    <glyph glyph-name="S" unicode="S" horiz-adv-x="512" 
d="M256 0v384h192v-384h-192zM64 384v384h192v-384h-192z" />
    <glyph glyph-name="T" unicode="T" 
d="M640 0v192h192v-192h-192zM640 256v320h-576v192h768v-512h-192z" />
    <glyph glyph-name="U" unicode="U" horiz-adv-x="832" 
d="M64 128v192h704v-192h-704zM128 448v192h192v-192h-192zM512 448v192h192v-192h-192z" />
    <glyph glyph-name="V" unicode="V" 
d="M64 0v192h768v-192h-768zM64 320v192h256v256h256v-256h256v-192h-768z" />
    <glyph glyph-name="W" unicode="W" horiz-adv-x="768" 
d="M64 192v192h256v-192h-256zM448 192v192h256v-192h-256zM256 512v192h256v-192h-256z" />
    <glyph glyph-name="X" unicode="X" 
d="M64 576v192h192v-192h-192zM320 0v128h64v128h64v128h64v128h64v128h64v128h192v-128h-64v-128h-64v-128h-64v-128h-64v-128h-64v-128h-192z" />
    <glyph glyph-name="Y" unicode="Y" horiz-adv-x="640" 
d="M64 0v768h192v-768h-192zM384 0v768h192v-768h-192z" />
    <glyph glyph-name="Z" unicode="Z" horiz-adv-x="768" 
d="M64 0v576h192v-576h-192zM512 0v576h192v-576h-192zM256 576v192h256v-192h-256z" />
    <glyph glyph-name="bracketleft" unicode="[" horiz-adv-x="384" 
d="M64 0v512h256v-128h-128v-256h128v-128h-256z" />
    <glyph glyph-name="backslash" unicode="\" horiz-adv-x="448" 
d="M256 0v128h-64v128h-64v128h-64v128h128v-128h64v-128h64v-128h64v-128h-128z" />
    <glyph glyph-name="bracketright" unicode="]" horiz-adv-x="384" 
d="M64 0v128h128v256h-128v128h256v-512h-256z" />
    <glyph glyph-name="asciicircum" unicode="^" horiz-adv-x="512" 
d="M64 256v128h128v-128h-128zM320 256v128h128v-128h-128zM192 384v128h128v-128h-128z" />
    <glyph glyph-name="underscore" unicode="_" 
d="M64 0v192h768v-192h-768z" />
    <glyph glyph-name="grave" unicode="`" horiz-adv-x="320" 
d="M128 320v64h-64v128h128v-64h64v-128h-128z" />
    <glyph glyph-name="a" unicode="a" 
d="M64 0v192h128v384h64v64h64v64h64v64h256v-64h64v-64h64v-64h64v-128h-192v128h-64v64h-64v-64h-64v-64h-64v-512h-320z" />
    <glyph glyph-name="b" unicode="b" 
d="M64 0v192h448v64h-64v64h-64v64h-64v384h192v-320h64v-64h64v-64h64v-64h64v-64h64v-192h-768z" />
    <glyph glyph-name="c" unicode="c" horiz-adv-x="512" 
d="M256 0v448h192v-448h-192zM64 448v128h192v-128h-192zM64 640v128h192v-128h-192z" />
    <glyph glyph-name="d" unicode="d" 
d="M640 64v64h-192v64h-192v64h-192v192h192v-64h192v-64h192v-64h192v-192h-192zM64 576v192h768v-192h-768z" />
    <glyph glyph-name="e" unicode="e" 
d="M64 0v768h192v-576h576v-192h-768zM640 576v192h192v-192h-192z" />
    <glyph glyph-name="f" unicode="f" 
d="M64 256v192h192v-192h-192zM320 256v192h256v-192h-256zM640 256v192h192v-192h-192zM64 576v192h768v-192h-768z" />
    <glyph glyph-name="g" unicode="g" horiz-adv-x="704" 
d="M448 0v320h-384v192h384v256h192v-768h-192z" />
    <glyph glyph-name="h" unicode="h" 
d="M320 0v256h-256v192h768v-192h-256v-256h-256zM64 576v192h768v-192h-768z" />
    <glyph glyph-name="i" unicode="i" horiz-adv-x="384" 
d="M64 0v320h256v-320h-256zM64 448v320h256v-320h-256z" />
    <glyph glyph-name="j" unicode="j" horiz-adv-x="384" 
d="M64 0v192h256v-192h-256zM64 256v256h256v-256h-256zM64 576v192h256v-192h-256z" />
    <glyph glyph-name="k" unicode="k" 
d="M64 320v192h192v-192h-192zM640 320v192h192v-192h-192zM320 0v768h256v-768h-256z" />
    <glyph glyph-name="l" unicode="l" horiz-adv-x="704" 
d="M448 64v192h192v-192h-192zM448 448v192h192v-192h-192zM64 0v768h192v-768h-192z" />
    <glyph glyph-name="m" unicode="m" 
d="M64 576v192h192v-192h-192zM64 0v192h576v576h192v-768h-768z" />
    <glyph glyph-name="n" unicode="n" horiz-adv-x="768" 
d="M64 384v384h192v-384h-192zM64 0v64h128v64h64v64h64v64h64v64h64v128h64v320h192v-320h-64v-128h-64v-64h-64v-64h-64v-64h-64v-64h-128v-64h-192z" />
    <glyph glyph-name="o" unicode="o" horiz-adv-x="768" 
d="M64 0v64h128v64h64v64h64v64h64v64h64v128h64v128h-64v64h-384v128h512v-64h64v-128h64v-128h-64v-128h-64v-64h-64v-64h-64v-64h-64v-64h-128v-64h-192z" />
    <glyph glyph-name="p" unicode="p" horiz-adv-x="640" 
d="M384 0v128h192v-128h-192zM64 0v576h192v-576h-192zM64 640v128h192v-128h-192zM384 192v576h192v-576h-192z" />
    <glyph glyph-name="q" unicode="q" 
d="M64 0v192h576v128h-576v192h768v-512h-768zM320 576v192h256v-192h-256z" />
    <glyph glyph-name="r" unicode="r" horiz-adv-x="768" 
d="M64 0v192h192v-192h-192zM512 0v192h192v-192h-192zM64 576v192h192v-192h-192zM512 576v192h192v-192h-192z" />
    <glyph glyph-name="s" unicode="s" horiz-adv-x="512" 
d="M256 0v384h192v-384h-192zM64 384v384h192v-384h-192z" />
    <glyph glyph-name="t" unicode="t" 
d="M640 0v192h192v-192h-192zM640 256v320h-576v192h768v-512h-192z" />
    <glyph glyph-name="u" unicode="u" horiz-adv-x="832" 
d="M64 128v192h704v-192h-704zM128 448v192h192v-192h-192zM512 448v192h192v-192h-192z" />
    <glyph glyph-name="v" unicode="v" 
d="M64 0v192h768v-192h-768zM64 320v192h256v256h256v-256h256v-192h-768z" />
    <glyph glyph-name="w" unicode="w" horiz-adv-x="768" 
d="M64 192v192h256v-192h-256zM448 192v192h256v-192h-256zM256 512v192h256v-192h-256z" />
    <glyph glyph-name="x" unicode="x" 
d="M64 576v192h192v-192h-192zM320 0v128h64v128h64v128h64v128h64v128h64v128h192v-128h-64v-128h-64v-128h-64v-128h-64v-128h-64v-128h-192z" />
    <glyph glyph-name="y" unicode="y" horiz-adv-x="640" 
d="M64 0v768h192v-768h-192zM384 0v768h192v-768h-192z" />
    <glyph glyph-name="z" unicode="z" horiz-adv-x="768" 
d="M64 0v576h192v-576h-192zM512 0v576h192v-576h-192zM256 576v192h256v-192h-256z" />
    <glyph glyph-name="braceleft" unicode="{" horiz-adv-x="320" 
d="M192 0v64h64v-64h-64zM128 64v128h-64v128h64v128h64v-384h-64zM192 448v64h64v-64h-64z" />
    <glyph glyph-name="bar" unicode="|" horiz-adv-x="256" 
d="M64 0v512h128v-512h-128z" />
    <glyph glyph-name="braceright" unicode="}" horiz-adv-x="320" 
d="M64 0v64h64v-64h-64zM128 64v384h64v-128h64v-128h-64v-128h-64zM64 448v64h64v-64h-64z" />
    <glyph glyph-name="asciitilde" unicode="~" horiz-adv-x="384" 
d="M64 192v64h64v-64h-64zM192 192v64h64v-64h-64zM128 256v64h64v-64h-64zM256 256v64h64v-64h-64z" />
    <glyph glyph-name="quoteleft" unicode="&#x2018;" horiz-adv-x="192" 
d="M64 384v128h64v-128h-64z" />
    <glyph glyph-name="quoteright" unicode="&#x2019;" horiz-adv-x="192" 
d="M64 384v128h64v-128h-64z" />
    <glyph glyph-name="quotedblleft" unicode="&#x201c;" horiz-adv-x="320" 
d="M64 384v128h64v-128h-64zM192 384v128h64v-128h-64z" />
    <glyph glyph-name="quotedblright" unicode="&#x201d;" horiz-adv-x="320" 
d="M64 384v128h64v-128h-64zM192 384v128h64v-128h-64z" />
  </font>
</defs>
</svg>
